# xmcd
#
# Track frame offsets: 
#        150
#        42407
#        85347
#        116367
#        147752
#        177765
#        198012
#        235557
#        258240
#
# Disc length: 3665 seconds
#
# Revision: 0
# Processed by: cddbd v1.5.1PL0 Copyright (c) Steve Scherf et al.
# Submitted via: ExactAudioCopy v0.95b3
#
DISCID=690e4f09
DTITLE=Eddit Clearwater - Black Night
DYEAR=1995
DGENRE=Blues
TTITLE0=Black Night
TTITLE1=Chicago Dailey Blues
TTITLE2=My Babe
TTITLE3=Hoochie Coochie Man
TTITLE4=Rock Me Baby
TTITLE5=Everyday I Have The Blues
TTITLE6=The Things I Used To Do
TTITLE7=You Don't Have To Go
TTITLE8=Poison Ivy
EXTD=
EXTT0=
EXTT1=
EXTT2=
EXTT3=
EXTT4=
EXTT5=
EXTT6=
EXTT7=
EXTT8=
PLAYORDER=
